Coordinates
version=1
nRows=16
nColumns=28
inDegrees=yes

Units are S.I. units (second, meters, Newtons, ...)
Angles are in degrees.

endheader
time	pelvis_tilt	pelvis_list	pelvis_rotation	pelvis_tx	pelvis_ty	pelvis_tz	hip_flexion_r	hip_adduction_r	hip_rotation_r	knee_angle_r	ankle_angle_r	subtalar_angle_r	mtp_angle_r	hip_flexion_l	hip_adduction_l	hip_rotation_l	knee_angle_l	socket_flexion	socket_adduction	socket_rotation	socket_tx	socket_ty	socket_tz	foot_flex	lumbar_extension	lumbar_bending	lumbar_rotation
      0.27083333	     -0.29364779	      4.92689724	      1.59099836	     -0.41421399	      0.98371767	      0.23614567	     15.18075376	     -8.87335677	      2.26074275	    -63.00696680	    -13.46907411	    -13.53119393	     17.00103529	      9.09940237	      5.13888358	      5.42232473	    -19.71266667	     -0.43818842	      0.00000000	      0.00000000	      0.00000000	     -0.00811946	      0.00000000	      4.21085840	     -8.22983513	     -7.29130961	     -4.69579680
      0.27500000	      0.06587594	      4.67954545	      1.52868140	     -0.40804291	      0.98541044	      0.23591492	     15.34932893	     -8.48094018	      2.26310240	    -62.74945715	    -12.24782355	    -14.19024846	     15.65917754	      7.75327440	      4.82194074	      5.59121749	    -18.12136458	      0.42631793	      0.00000000	      0.00000000	      0.00000000	     -0.00842087	      0.00000000	      4.31280956	     -8.55093210	     -6.96790079	     -5.11820632
      0.27916667	      0.12488867	      4.47877033	      1.56989935	     -0.40253745	      0.98640130	      0.23529556	     15.99134543	     -8.27421510	      2.11279763	    -62.64013480	    -11.29287105	    -14.59393351	     15.58257421	      7.20634512	      4.62596518	      5.63490526	    -17.93044906	      0.36817498	      0.00000000	      0.00000000	      0.00000000	     -0.00823352	      0.00000000	      4.36881799	     -8.61364080	     -6.69350552	     -5.16834133
      0.28333333	      0.42480845	      4.24173317	      1.52679395	     -0.39660005	      0.98789726	      0.23489691	     16.24973377	     -7.94112459	      2.05985259	    -62.33002578	    -10.42323813	    -15.05539874	     14.30399073	      6.04472211	      4.34233949	      5.77886660	    -16.68386670	      0.99599895	      0.00000000	      0.00000000	      0.00000000	     -0.00839114	      0.00000000	      4.45159180	     -8.89706475	     -6.35661621	     -5.48317957
      0.28750000	      0.47733401	      4.05342177	      1.57344015	     -0.39112169	      0.98888635	      0.23433192	     16.84072823	     -7.71217127	      1.94651138	    -62.09200595	     -9.48678407	    -15.45571761	     14.19047419	      5.50902858	      4.15427085	      5.86773379	    -16.48891731	      0.92886455	      0.00000000	      0.00000000	      0.00000000	     -0.00808375	      0.00000000	      4.49860287	     -8.93668815	     -6.11171291	     -5.53156214
      0.29166667	      0.51039488	      3.89168685	      1.61111710	     -0.38556959	      0.98978941	      0.23370509	     17.45313278	     -7.56584413	      1.77192996	    -61.81674437	     -8.83273092	    -15.77431458	     14.10689506	      4.97797467	      3.99770163	      5.90085930	    -16.28291236	      0.85172680	      0.00000000	      0.00000000	      0.00000000	     -0.00780831	      0.00000000	      4.52808218	     -8.94533586	     -5.87021390	     -5.62483016
      0.29583333	      0.80118343	      3.57398656	      1.63936123	     -0.37970902	      0.99131550	      0.23330535	     17.60395736	     -7.09839502	      1.67585640	    -61.26657176	     -7.99350250	    -16.43561561	     12.76737859	      3.82804811	      3.61679945	      6.12982135	    -14.94624188	      1.57158064	      0.00000000	      0.00000000	      0.00000000	     -0.00790492	      0.00000000	      4.57983360	     -9.24094162	     -5.45540741	     -6.09440954
      0.30000000	      0.82808775	      3.40285290	      1.68633112	     -0.37425547	      0.99219661	      0.23272223	     18.17410280	     -6.89161533	      1.55299847	    -60.88084431	     -7.13404286	    -16.80301803	     12.65508506	      3.33199094	      3.44916050	      6.17345938	    -14.77835355	      1.49065027	      0.00000000	      0.00000000	      0.00000000	     -0.00758050	      0.00000000	      4.60052615	     -9.26468932	     -5.21323773	     -6.11166293
      0.30416667	      0.85422860	      3.37661482	      1.72281618	     -0.36920694	      0.99308370	      0.23215137	     18.80054721	     -6.85610124	      1.48136229	    -60.46583364	     -6.99240824	    -16.86781434	     12.63658808	      2.92927663	      3.44807196	      6.23018391	    -14.76299974	      1.36745081	      0.00000000	      0.00000000	      0.00000000	     -0.00692552	      0.00000000	      4.64559317	     -9.37874870	     -5.17810040	     -6.13102420
      0.30833333	      0.85098430	      2.94484684	      1.82381077	     -0.36327276	      0.99394909	      0.23159642	     19.20943595	     -6.30408212	      1.28934870	    -59.82514937	     -5.70416556	    -17.59564782	     12.19506347	      2.28041436	      2.96668204	      6.42424912	    -14.08618989	      1.59621034	      0.00000000	      0.00000000	      0.00000000	     -0.00710875	      0.00000000	      4.66772070	     -9.27417227	     -4.59838755	     -6.46913374
      0.31250000	      1.31879287	      2.68168146	      1.80227955	     -0.35740505	      0.99561598	      0.23128587	     19.10035080	     -5.89252603	      1.19546704	    -59.08280791	     -5.06140136	    -18.13424836	      9.92534737	      0.89267772	      2.62184970	      6.53837773	    -12.65203078	      2.32026482	      0.00000000	      0.00000000	      0.00000000	     -0.00702852	      0.00000000	      4.67793682	     -9.76119612	     -4.24496100	     -6.73796032
      0.31666667	      1.25924026	      2.49200790	      1.85810784	     -0.35206022	      0.99626162	      0.23075225	     19.68147258	     -5.64009947	      1.08854020	    -58.47758470	     -4.34900945	    -18.39836066	      9.81338321	      0.51774300	      2.43006818	      6.62503965	    -12.51795069	      2.22474012	      0.00000000	      0.00000000	      0.00000000	     -0.00672679	      0.00000000	      4.68287893	     -9.69928835	     -3.99257778	     -6.80134765
      0.32083333	      1.22002831	      2.41282176	      1.91286998	     -0.34665836	      0.99700079	      0.23023407	     20.19791699	     -5.52117777	      0.99016467	    -57.76139189	     -3.96810337	    -18.57726062	      9.74516810	      0.12743081	      2.35799919	      6.66005622	    -12.42652228	      2.10393680	      0.00000000	      0.00000000	      0.00000000	     -0.00614908	      0.00000000	      4.69607326	     -9.64889753	     -3.89798880	     -6.87028054
      0.32500000	      1.40083870	      2.01818192	      2.04222877	     -0.34109877	      0.99804198	      0.22972622	     20.35057355	     -4.99193920	      0.77956054	    -56.90408487	     -3.23868038	    -19.21932884	      8.06713891	     -0.73334563	      1.89267062	      6.90447880	    -11.51914116	      2.54563702	      0.00000000	      0.00000000	      0.00000000	     -0.00622987	      0.00000000	      4.71732332	     -9.85079259	     -3.35766322	     -7.36994661
      0.32916667	      1.31517451	      1.80793281	      2.10800197	     -0.33575896	      0.99856838	      0.22925570	     20.87317962	     -4.69395806	      0.68125212	    -56.10529829	     -2.62538706	    -19.42886126	      7.91296386	     -1.07711588	      1.66865454	      6.97817742	    -11.36592973	      2.47401328	      0.00000000	      0.00000000	      0.00000000	     -0.00596099	      0.00000000	      4.71572876	     -9.76384380	     -3.09836395	     -7.41468208
      0.33333333	      1.25010035	      1.59893113	      2.20275476	     -0.33039677	      0.99912972	      0.22873475	     21.32970755	     -4.40809106	      0.55222053	    -55.22159141	     -2.11117194	    -19.70789685	      7.64951045	     -1.46434861	      1.44339353	      7.08669917	    -11.12897069	      2.46871006	      0.00000000	      0.00000000	      0.00000000	     -0.00568442	      0.00000000	      4.72339106	     -9.69865520	     -2.81885148	     -7.58268071
